<svg width="39" height="36" viewBox="0 0 39 36" fill="none" xmlns="http://www.w3.org/2000/svg">
<path d="M9.66667 4.04583C8.89451 4.58281 8.26381 5.29873 7.82846 6.13243C7.39311 6.96612 7.16605 7.89281 7.16667 8.83333C7.16613 9.83986 7.42619 10.8294 7.92154 11.7056C8.41688 12.5818 9.13064 13.3148 9.99333 13.8333M29.6667 4.04583C30.4388 4.58281 31.0695 5.29873 31.5049 6.13243C31.9402 6.96612 32.1673 7.89281 32.1667 8.83333C32.1673 9.77385 31.9402 10.7005 31.5049 11.5342C31.0695 12.3679 30.4388 13.0839 29.6667 13.6208M36.3333 33V32C36.3333 28.2667 36.3333 26.4 35.6067 24.9733C34.9675 23.719 33.9477 22.6991 32.6933 22.06M3 33V32C3 28.2667 3 26.4 3.72667 24.9733C4.36581 23.719 5.38564 22.6991 6.64 22.06M19.6667 14.6667C20.4327 14.6667 21.1913 14.5158 21.899 14.2226C22.6067 13.9295 23.2498 13.4998 23.7915 12.9581C24.3331 12.4164 24.7628 11.7734 25.056 11.0657C25.3491 10.3579 25.5 9.59938 25.5 8.83333C25.5 8.06729 25.3491 7.30875 25.056 6.60101C24.7628 5.89328 24.3331 5.25022 23.7915 4.70854C23.2498 4.16687 22.6067 3.73719 21.899 3.44404C21.1913 3.15088 20.4327 3 19.6667 3C18.1196 3 16.6358 3.61458 15.5419 4.70854C14.4479 5.80251 13.8333 7.28624 13.8333 8.83333C13.8333 10.3804 14.4479 11.8642 15.5419 12.9581C16.6358 14.0521 18.1196 14.6667 19.6667 14.6667ZM9.66667 31.3333V33H29.6667V31.3333C29.6667 28.2275 29.6667 26.6742 29.1592 25.4483C28.4824 23.8149 27.1844 22.5173 25.5508 21.8408C24.3258 21.3333 22.7725 21.3333 19.6667 21.3333C16.5608 21.3333 15.0075 21.3333 13.7825 21.8408C12.9736 22.1759 12.2385 22.667 11.6194 23.2861C11.0003 23.9052 10.5092 24.6402 10.1742 25.4492C9.66667 26.6733 9.66667 28.2275 9.66667 31.3333Z" stroke="#EDEDFF" stroke-width="4.16667" stroke-linecap="round" stroke-linejoin="round"/>
</svg>
