<svg width="36" height="35" viewBox="0 0 36 35" fill="none" xmlns="http://www.w3.org/2000/svg">
<path fill-rule="evenodd" clip-rule="evenodd" d="M17.5158 33.2499C26.2142 33.2499 33.2658 26.1983 33.2658 17.5C33.2658 8.80161 26.2142 1.75 17.5158 1.75C8.81748 1.75 1.76587 8.80161 1.76587 17.5C1.76587 26.1983 8.81748 33.2499 17.5158 33.2499ZM17.5158 34.9999C27.1811 34.9999 35.0158 27.1652 35.0158 17.5C35.0158 7.83473 27.1811 0 17.5158 0C7.8506 0 0.0158691 7.83473 0.0158691 17.5C0.0158691 27.1652 7.8506 34.9999 17.5158 34.9999Z" fill="#EDEDFF" fill-opacity="0.6"/>
<path d="M7.01587 27.676C7.01587 26.7722 7.69137 26.0083 8.59087 25.9085C15.3415 25.1613 19.7208 25.2287 26.4566 25.9252C26.7929 25.9605 27.1117 26.093 27.374 26.3065C27.6363 26.52 27.8307 26.8053 27.9336 27.1275C28.0364 27.4497 28.0431 27.7949 27.953 28.1209C27.8629 28.4469 27.6798 28.7395 27.4261 28.9632C19.4767 35.8923 14.9337 35.7969 7.57587 28.9702C7.21712 28.6377 7.01587 28.1643 7.01587 27.676Z" fill="#EDEDFF" fill-opacity="0.6"/>
<path fill-rule="evenodd" clip-rule="evenodd" d="M26.3665 26.7954C19.6841 26.1041 15.3677 26.0394 8.68624 26.7787C8.46631 26.8044 8.26355 26.9102 8.1168 27.076C7.97004 27.2418 7.8896 27.4559 7.89087 27.6774C7.89087 27.9276 7.995 28.1647 8.17087 28.3292C11.8179 31.712 14.5811 33.2406 17.2822 33.2502C19.993 33.2598 22.905 31.7435 26.8512 28.3047C26.9766 28.1931 27.0668 28.0475 27.111 27.8856C27.1552 27.7237 27.1513 27.5524 27.1 27.3926C27.0486 27.2329 26.952 27.0914 26.8218 26.9856C26.6915 26.8797 26.5334 26.813 26.3665 26.7954ZM8.49462 25.0392C15.3161 24.2841 19.7593 24.3524 26.5476 25.055C27.0536 25.1078 27.5332 25.307 27.9278 25.6282C28.3223 25.9494 28.6146 26.3787 28.769 26.8635C28.9233 27.3483 28.9329 27.8676 28.7967 28.3577C28.6604 28.8479 28.3842 29.2877 28.0018 29.6233C23.9987 33.1128 20.665 35.0133 17.277 35.0002C13.8794 34.988 10.6926 33.0551 6.98175 29.612C6.71606 29.3645 6.50425 29.0649 6.35957 28.7319C6.21489 28.3989 6.14044 28.0396 6.14087 27.6765C6.1396 27.0241 6.37905 26.3942 6.81337 25.9074C7.24768 25.4206 7.84632 25.1121 8.49462 25.0392Z" fill="#EDEDFF" fill-opacity="0.6"/>
<path d="M24.5158 14C24.5158 15.8565 23.7783 17.637 22.4656 18.9497C21.1528 20.2625 19.3724 21 17.5159 21C15.6593 21 13.8789 20.2625 12.5661 18.9497C11.2534 17.637 10.5159 15.8565 10.5159 14C10.5159 12.1435 11.2534 10.363 12.5661 9.05025C13.8789 7.7375 15.6593 7 17.5159 7C19.3724 7 21.1528 7.7375 22.4656 9.05025C23.7783 10.363 24.5158 12.1435 24.5158 14Z" fill="#EDEDFF" fill-opacity="0.6"/>
<path fill-rule="evenodd" clip-rule="evenodd" d="M17.5159 19.25C18.9082 19.25 20.2436 18.6969 21.2282 17.7123C22.2127 16.7277 22.7658 15.3924 22.7658 14C22.7658 12.6076 22.2127 11.2722 21.2282 10.2877C20.2436 9.30312 18.9082 8.75 17.5159 8.75C16.1235 8.75 14.7881 9.30312 13.8036 10.2877C12.819 11.2722 12.2659 12.6076 12.2659 14C12.2659 15.3924 12.819 16.7277 13.8036 17.7123C14.7881 18.6969 16.1235 19.25 17.5159 19.25ZM17.5159 21C19.3724 21 21.1528 20.2625 22.4656 18.9497C23.7783 17.637 24.5158 15.8565 24.5158 14C24.5158 12.1435 23.7783 10.363 22.4656 9.05025C21.1528 7.7375 19.3724 7 17.5159 7C15.6593 7 13.8789 7.7375 12.5661 9.05025C11.2534 10.363 10.5159 12.1435 10.5159 14C10.5159 15.8565 11.2534 17.637 12.5661 18.9497C13.8789 20.2625 15.6593 21 17.5159 21Z" fill="#EDEDFF" fill-opacity="0.6"/>
</svg>
