<svg width="31" height="35" viewBox="0 0 31 35" fill="none" xmlns="http://www.w3.org/2000/svg">
<path d="M27.1111 25V16.3333C26.2778 16.5 25.4445 16.6667 24.6111 16.6667H23.7778V26.6667H7.11112V15C7.11112 10.3333 10.7778 6.66667 15.4445 6.66667C15.6111 4.5 16.6111 2.66667 17.9445 1.16667C17.4445 0.5 16.4445 0 15.4445 0C13.6111 0 12.1111 1.5 12.1111 3.33333V3.83333C7.11112 5.33333 3.77779 9.83333 3.77779 15V25L0.444458 28.3333V30H30.4445V28.3333L27.1111 25ZM12.1111 31.6667C12.1111 33.5 13.6111 35 15.4445 35C17.2778 35 18.7778 33.5 18.7778 31.6667H12.1111ZM30.4445 7.5C30.4445 10.6667 27.7778 13.3333 24.6111 13.3333C21.4445 13.3333 18.7778 10.6667 18.7778 7.5C18.7778 4.33333 21.4445 1.66667 24.6111 1.66667C27.7778 1.66667 30.4445 4.33333 30.4445 7.5Z" fill="#EDEDFF" fill-opacity="0.6"/>
</svg>
